<svg width="32" height="32" viewBox="0 0 32 32" fill="none" xmlns="http://www.w3.org/2000/svg">
<path fill-rule="evenodd" clip-rule="evenodd" d="M16.0001 29.3333C23.3638 29.3333 29.3334 23.3637 29.3334 16C29.3334 8.63619 23.3638 2.66666 16.0001 2.66666C8.63628 2.66666 2.66675 8.63619 2.66675 16C2.66675 23.3637 8.63628 29.3333 16.0001 29.3333ZM17.0001 12C17.0001 11.4477 16.5523 11 16.0001 11C15.4478 11 15.0001 11.4477 15.0001 12V15H12.0001C11.4478 15 11.0001 15.4477 11.0001 16C11.0001 16.5523 11.4478 17 12.0001 17H15.0001V20C15.0001 20.5523 15.4478 21 16.0001 21C16.5523 21 17.0001 20.5523 17.0001 20V17H20.0001C20.5523 17 21.0001 16.5523 21.0001 16C21.0001 15.4477 20.5523 15 20.0001 15H17.0001V12Z" fill="#BFBFBF"/>
</svg>
