<svg width="48" height="48" viewBox="0 0 48 48" fill="none" xmlns="http://www.w3.org/2000/svg">
<path d="M24 37.05C23.6 37.05 23.2 36.9833 22.8 36.85C22.4 36.7167 22.0333 36.5167 21.7 36.25C17.7667 33.1167 14.8333 30.0587 12.9 27.076C10.9667 24.0933 10 21.168 10 18.3C10 14.1333 11.3 10.7087 13.9 8.026C16.5 5.34333 19.8667 4.00133 24 4C28.1333 3.99867 31.5 5.34067 34.1 8.026C36.7 10.7113 38 14.136 38 18.3C38 21.1667 37.0333 24.092 35.1 27.076C33.1667 30.06 30.2333 33.118 26.3 36.25C25.9667 36.5167 25.6 36.7167 25.2 36.85C24.8 36.9833 24.4 37.05 24 37.05ZM24 22C25.1 22 26.042 21.6087 26.826 20.826C27.61 20.0433 28.0013 19.1013 28 18C27.9987 16.8987 27.6073 15.9573 26.826 15.176C26.0447 14.3947 25.1027 14.0027 24 14C22.8973 13.9973 21.956 14.3893 21.176 15.176C20.396 15.9627 20.004 16.904 20 18C19.996 19.096 20.388 20.038 21.176 20.826C21.964 21.614 22.9053 22.0053 24 22ZM12 44C11.4333 44 10.9587 43.808 10.576 43.424C10.1933 43.04 10.0013 42.5653 10 42C9.99867 41.4347 10.1907 40.96 10.576 40.576C10.9613 40.192 11.436 40 12 40H36C36.5667 40 37.042 40.192 37.426 40.576C37.81 40.96 38.0013 41.4347 38 42C37.9987 42.5653 37.8067 43.0407 37.424 43.426C37.0413 43.8113 36.5667 44.0027 36 44H12Z" fill="url(#paint0_linear_70_39)"/>
<defs>
<linearGradient id="paint0_linear_70_39" x1="24" y1="4" x2="24" y2="44" gradientUnits="userSpaceOnUse">
<stop stop-color="#000080"/>
<stop offset="0.437007" stop-color="#1313A2"/>
<stop offset="1" stop-color="#2C2CCD"/>
</linearGradient>
</defs>
</svg>
