<svg width="48" height="48" viewBox="0 0 48 48" fill="none" xmlns="http://www.w3.org/2000/svg">
<path fill-rule="evenodd" clip-rule="evenodd" d="M13.5 13C13.5 7.201 18.201 2.5 24 2.5C29.799 2.5 34.5 7.201 34.5 13C34.5 18.799 29.799 23.5 24 23.5C18.201 23.5 13.5 18.799 13.5 13Z" fill="url(#paint0_linear_45_30)"/>
<path fill-rule="evenodd" clip-rule="evenodd" d="M8.5 37.1428C8.5 31.265 13.265 26.5 19.1429 26.5H28.8572C34.735 26.5 39.5 31.265 39.5 37.1428C39.5 41.7584 35.7584 45.5 31.1428 45.5H16.8571C12.2416 45.5 8.5 41.7584 8.5 37.1428Z" fill="url(#paint1_linear_45_30)"/>
<defs>
<linearGradient id="paint0_linear_45_30" x1="24" y1="2.5" x2="24" y2="23.5" gradientUnits="userSpaceOnUse">
<stop stop-color="#000080"/>
<stop offset="0.437007" stop-color="#1313A2"/>
<stop offset="1" stop-color="#2C2CCD"/>
</linearGradient>
<linearGradient id="paint1_linear_45_30" x1="24" y1="26.5" x2="24" y2="45.5" gradientUnits="userSpaceOnUse">
<stop stop-color="#000080"/>
<stop offset="0.437007" stop-color="#1313A2"/>
<stop offset="1" stop-color="#2C2CCD"/>
</linearGradient>
</defs>
</svg>
