<svg width="38" height="40" viewBox="0 0 38 40" fill="none" xmlns="http://www.w3.org/2000/svg">
<path fill-rule="evenodd" clip-rule="evenodd" d="M22.558 0.304C21.818 -8.9407e-08 20.878 0 19 0C17.122 0 16.184 -8.9407e-08 15.442 0.304C14.9538 0.503491 14.5098 0.797563 14.1357 1.16929C13.7616 1.54102 13.4646 1.98307 13.262 2.47C13.074 2.916 13.002 3.438 12.972 4.196C12.9577 4.745 12.8041 5.28137 12.5257 5.75471C12.2472 6.22806 11.853 6.62285 11.38 6.902C10.8975 7.17021 10.3551 7.31229 9.80306 7.31509C9.25102 7.31788 8.70721 7.1813 8.22201 6.918C7.54601 6.562 7.05601 6.366 6.57201 6.302C5.51317 6.16385 4.44254 6.44839 3.59201 7.094C2.95601 7.578 2.48601 8.386 1.54801 10C0.608005 11.614 0.140005 12.42 0.0340054 13.21C-0.105995 14.262 0.182006 15.326 0.834006 16.168C1.13001 16.552 1.54801 16.874 2.19401 17.278C3.14801 17.872 3.76001 18.884 3.76001 20C3.76001 21.116 3.14801 22.128 2.19601 22.72C1.54801 23.126 1.13001 23.448 0.832005 23.832C0.511138 24.2484 0.275504 24.724 0.138577 25.2316C0.00164941 25.7391 -0.0338852 26.2687 0.0340054 26.79C0.140005 27.578 0.608005 28.386 1.54801 30C2.48801 31.614 2.95601 32.42 3.59201 32.906C4.44001 33.552 5.51201 33.836 6.57201 33.698C7.05601 33.634 7.54601 33.438 8.22201 33.082C8.70746 32.8183 9.25164 32.6816 9.80406 32.6844C10.3565 32.6872 10.8992 32.8294 11.382 33.098C12.354 33.658 12.93 34.688 12.972 35.804C13.002 36.564 13.074 37.084 13.262 37.53C13.67 38.51 14.454 39.29 15.442 39.696C16.182 40 17.122 40 19 40C20.878 40 21.818 40 22.558 39.696C23.0462 39.4965 23.4902 39.2024 23.8643 38.8307C24.2384 38.459 24.5354 38.0169 24.738 37.53C24.926 37.084 24.998 36.564 25.028 35.804C25.068 34.688 25.646 33.656 26.62 33.098C27.1025 32.8298 27.6449 32.6877 28.197 32.6849C28.749 32.6821 29.2928 32.8187 29.778 33.082C30.454 33.438 30.944 33.634 31.428 33.698C32.488 33.838 33.56 33.552 34.408 32.906C35.044 32.422 35.514 31.614 36.452 30C37.392 28.386 37.86 27.58 37.966 26.79C38.0336 26.2686 37.9978 25.7389 37.8605 25.2314C37.7232 24.7238 37.4872 24.2483 37.166 23.832C36.87 23.448 36.452 23.126 35.806 22.722C34.852 22.128 34.24 21.116 34.24 20C34.24 18.884 34.852 17.872 35.804 17.28C36.452 16.874 36.87 16.552 37.168 16.168C37.4889 15.7516 37.7245 15.276 37.8614 14.7684C37.9984 14.2609 38.0339 13.7313 37.966 13.21C37.86 12.422 37.392 11.614 36.452 10C35.512 8.386 35.044 7.58 34.408 7.094C33.5575 6.44839 32.4868 6.16385 31.428 6.302C30.944 6.366 30.454 6.562 29.778 6.918C29.2926 7.18166 28.7484 7.31843 28.196 7.31564C27.6435 7.31284 27.1008 7.17056 26.618 6.902C26.1454 6.6226 25.7516 6.2277 25.4735 5.75438C25.1954 5.28105 25.0421 4.74481 25.028 4.196C24.998 3.436 24.926 2.916 24.738 2.47C24.5354 1.98307 24.2384 1.54102 23.8643 1.16929C23.4902 0.797563 23.0462 0.503491 22.558 0.304ZM19 26C22.34 26 25.046 23.314 25.046 20C25.046 16.686 22.338 14 19 14C15.662 14 12.954 16.686 12.954 20C12.954 23.314 15.662 26 19 26Z" fill="url(#paint0_linear_11_52)"/>
<defs>
<linearGradient id="paint0_linear_11_52" x1="18.9994" y1="0" x2="18.9994" y2="40" gradientUnits="userSpaceOnUse">
<stop stop-color="#FD642C"/>
<stop offset="1" stop-color="#FFAA22"/>
</linearGradient>
</defs>
</svg>
