<svg width="16" height="16" viewBox="0 0 16 16" fill="none" xmlns="http://www.w3.org/2000/svg">
<path d="M1.79271 4.46967C1.68393 4.21586 1.38999 4.09828 1.13618 4.20706C0.882364 4.31584 0.764784 4.60978 0.873564 4.86359L1.79271 4.46967ZM6.02744 9.15843C6.17804 8.92703 6.1125 8.6173 5.88104 8.4667C5.64958 8.3161 5.33986 8.38163 5.18925 8.6131L6.02744 9.15843ZM4.24738 10.0606C4.09677 10.292 4.16232 10.6018 4.39378 10.7524C4.62524 10.903 4.93496 10.8374 5.08556 10.606L4.24738 10.0606ZM15.1261 4.86359C15.2348 4.60978 15.1173 4.31584 14.8634 4.20706C14.6096 4.09828 14.3157 4.21586 14.2069 4.46967L15.1261 4.86359ZM13.3129 8.77277C13.5082 8.96803 13.8247 8.96803 14.02 8.77277C14.2153 8.5775 14.2153 8.2609 14.02 8.06563L13.3129 8.77277ZM7.4998 11C7.4998 11.2761 7.72367 11.5 7.9998 11.5C8.27594 11.5 8.4998 11.2761 8.4998 11H7.4998ZM10.9141 10.606C11.0647 10.8374 11.3744 10.903 11.6058 10.7524C11.8373 10.6018 11.9028 10.292 11.7522 10.0606L10.9141 10.606ZM3.68669 7.77277C3.88195 7.5775 3.88195 7.2609 3.68669 7.06563C3.49143 6.87037 3.17484 6.87037 2.97958 7.06563L3.68669 7.77277ZM1.97958 8.06563C1.78432 8.2609 1.78432 8.5775 1.97958 8.77277C2.17484 8.96803 2.49143 8.96803 2.68669 8.77277L1.97958 8.06563ZM7.9998 8.8333C5.85054 8.8333 4.30736 7.76303 3.28287 6.65974C2.77077 6.10825 2.3953 5.55519 2.1482 5.14006C2.02493 4.93297 1.93438 4.76151 1.8754 4.64355C1.84593 4.58461 1.8244 4.53913 1.81065 4.50937C1.80378 4.4945 1.79886 4.48357 1.79588 4.47685C1.79438 4.4735 1.79324 4.47088 1.79271 4.46967C1.7927 4.46965 1.79273 4.46973 1.79271 4.46967C1.79278 4.46983 1.79271 4.46967 1.33314 4.66663C0.873564 4.86359 0.873464 4.86337 0.873564 4.86359C0.873604 4.86369 0.873897 4.86437 0.873984 4.86457C0.874151 4.86496 0.874358 4.86543 0.874591 4.86597C0.875051 4.86705 0.875644 4.86841 0.876357 4.87005C0.877791 4.87332 0.879724 4.87771 0.882157 4.88319C0.887024 4.89413 0.893904 4.9094 0.902824 4.92871C0.920651 4.96731 0.946644 5.0221 0.980977 5.09076C1.0496 5.22801 1.15176 5.42113 1.28891 5.65154C1.56264 6.11141 1.97884 6.72503 2.55007 7.34017C3.69225 8.57023 5.4824 9.8333 7.9998 9.8333V8.8333ZM10.2081 8.4205C9.5612 8.67517 8.8276 8.8333 7.9998 8.8333V9.8333C8.9586 9.8333 9.8162 9.64943 10.5744 9.35103L10.2081 8.4205ZM5.18925 8.6131L4.24738 10.0606L5.08556 10.606L6.02744 9.15843L5.18925 8.6131ZM14.6665 4.66663C14.2069 4.46967 14.2068 4.46977 14.2069 4.46967C14.2069 4.46957 14.2072 4.46896 14.2072 4.46903C14.2071 4.46917 14.2069 4.46965 14.2065 4.47047C14.2058 4.47212 14.2045 4.47513 14.2025 4.47946C14.1987 4.48812 14.1924 4.50203 14.1837 4.5208C14.1661 4.55835 14.1389 4.61527 14.1015 4.68841C14.0269 4.83481 13.9125 5.04551 13.7567 5.29543C13.4444 5.79674 12.9707 6.44795 12.3243 7.05463L13.0087 7.78377C13.7347 7.1023 14.2609 6.37721 14.6055 5.82427C14.7782 5.54709 14.9065 5.31117 14.9924 5.14273C15.0353 5.05847 15.0678 4.99092 15.09 4.94335C15.1011 4.91956 15.1096 4.90075 15.1156 4.88733C15.1186 4.88061 15.121 4.87525 15.1227 4.87127C15.1236 4.86929 15.1243 4.86765 15.1249 4.86637C15.1251 4.86573 15.1253 4.86517 15.1255 4.86471C15.1257 4.86448 15.126 4.86378 15.1261 4.86359C15.1261 4.86364 15.1261 4.8635 15.1261 4.86359C15.1261 4.86348 15.1261 4.86359 14.6665 4.66663ZM12.3243 7.05463C11.7516 7.5921 11.0491 8.0895 10.2081 8.4205L10.5744 9.35103C11.5568 8.96437 12.3642 8.38863 13.0087 7.78377L12.3243 7.05463ZM12.3129 7.77277L13.3129 8.77277L14.02 8.06563L13.02 7.06563L12.3129 7.77277ZM7.4998 9.3333V11H8.4998V9.3333H7.4998ZM9.9722 9.15843L10.9141 10.606L11.7522 10.0606L10.8103 8.6131L9.9722 9.15843ZM2.97958 7.06563L1.97958 8.06563L2.68669 8.77277L3.68669 7.77277L2.97958 7.06563Z" fill="#83A3B1"/>
</svg>
