<svg width="16" height="16" viewBox="0 0 16 16" fill="none" xmlns="http://www.w3.org/2000/svg">
<path fill-rule="evenodd" clip-rule="evenodd" d="M8 5.5C6.61929 5.5 5.5 6.61929 5.5 8C5.5 9.38073 6.61929 10.5 8 10.5C9.38073 10.5 10.5 9.38073 10.5 8C10.5 6.61929 9.38073 5.5 8 5.5ZM6.5 8C6.5 7.1716 7.1716 6.5 8 6.5C8.8284 6.5 9.5 7.1716 9.5 8C9.5 8.8284 8.8284 9.5 8 9.5C7.1716 9.5 6.5 8.8284 6.5 8Z" fill="#83A3B1"/>
<path fill-rule="evenodd" clip-rule="evenodd" d="M8.00016 2.16663C4.99074 2.16663 2.96369 3.96943 1.78721 5.49787L1.76599 5.52543C1.49992 5.87098 1.25487 6.18924 1.08862 6.56556C0.910589 6.96856 0.833496 7.40776 0.833496 7.99996C0.833496 8.59216 0.910589 9.03136 1.08862 9.43436C1.25487 9.81069 1.49992 10.129 1.766 10.4745L1.78721 10.502C2.96369 12.0305 4.99074 13.8333 8.00016 13.8333C11.0096 13.8333 13.0366 12.0305 14.2131 10.502L14.2343 10.4745C14.5004 10.129 14.7454 9.81069 14.9117 9.43436C15.0898 9.03136 15.1668 8.59216 15.1668 7.99996C15.1668 7.40776 15.0898 6.96856 14.9117 6.56556C14.7454 6.18923 14.5004 5.87097 14.2343 5.52541L14.2131 5.49787C13.0366 3.96943 11.0096 2.16663 8.00016 2.16663ZM2.57964 6.10783C3.66592 4.69657 5.43374 3.16663 8.00016 3.16663C10.5666 3.16663 12.3344 4.69657 13.4207 6.10783C13.7131 6.48769 13.8844 6.71469 13.997 6.96963C14.1023 7.20796 14.1668 7.49923 14.1668 7.99996C14.1668 8.50069 14.1023 8.79196 13.997 9.03029C13.8844 9.28523 13.7131 9.51223 13.4207 9.89209C12.3344 11.3034 10.5666 12.8333 8.00016 12.8333C5.43374 12.8333 3.66592 11.3034 2.57964 9.89209C2.28726 9.51223 2.11599 9.28523 2.00334 9.03029C1.89806 8.79196 1.8335 8.50069 1.8335 7.99996C1.8335 7.49923 1.89806 7.20796 2.00334 6.96963C2.11599 6.71469 2.28725 6.48769 2.57964 6.10783Z" fill="#83A3B1"/>
</svg>
